<?xml version="1.0" standalone="no"?>
<!DOCTYPE svg PUBLIC "-//W3C//DTD SVG 20010904//EN"
 "http://www.w3.org/TR/2001/REC-SVG-20010904/DTD/svg10.dtd">
<svg version="1.0" xmlns="http://www.w3.org/2000/svg"
 width="584.000000pt" height="584.000000pt" viewBox="0 0 584.000000 584.000000"
 preserveAspectRatio="xMidYMid meet">
<metadata>
Created by potrace 1.14, written by Peter Selinger 2001-2017
</metadata>
<g transform="translate(0.000000,584.000000) scale(0.100000,-0.100000)"
fill="#000000" stroke="none">
<path d="M4047 4482 c-84 -28 -146 -115 -147 -205 0 -78 -40 -12 525 -867 114
-173 221 -331 236 -351 75 -96 246 -105 325 -17 12 12 88 124 170 248 82 124
152 227 157 228 4 2 7 7 7 12 0 4 94 149 208 321 114 173 214 328 221 346 19
46 16 115 -8 165 -27 58 -50 82 -102 110 l-44 23 -753 1 c-620 0 -760 -2 -795
-14z"/>
<path d="M2674 4440 c-46 -10 -130 -59 -163 -95 -78 -86 -554 -786 -896 -1320
-71 -110 -164 -254 -207 -320 -43 -66 -91 -142 -108 -170 -17 -27 -71 -111
-120 -185 -119 -178 -130 -201 -131 -259 -2 -60 12 -85 184 -350 190 -292 281
-424 298 -434 45 -28 47 -25 610 821 299 451 552 824 562 831 36 24 63 3 140
-112 41 -62 262 -395 492 -742 552 -833 525 -794 546 -800 11 -4 28 -4 39 0
11 4 86 106 176 242 86 130 181 270 211 310 103 139 125 207 96 293 -8 25
-153 252 -322 505 -168 253 -308 465 -311 470 -3 6 -95 145 -204 310 -350 528
-431 650 -435 659 -8 19 -141 212 -163 237 -76 85 -196 130 -294 109z"/>
<path d="M140 3782 c-76 -8 -135 -88 -119 -162 10 -45 527 -832 561 -854 13
-8 41 -17 63 -19 83 -10 88 -4 376 430 145 219 269 409 275 423 28 65 -24 163
-94 176 -36 7 -994 12 -1062 6z"/>
</g>
</svg>
